<svg xmlns="http://www.w3.org/2000/svg" xmlns:xlink="http://www.w3.org/1999/xlink" viewBox="0 0 18 18.04"><defs><style>.cls-1{fill:none;}.cls-2{clip-path:url(#clip-path);}.cls-3{fill:#666;}</style><clipPath id="clip-path" transform="translate(-1 -0.98)"><rect class="cls-1" width="20" height="20"/></clipPath></defs><title>Search</title><g id="图层_2" data-name="图层 2"><g id="图层_1-2" data-name="图层 1"><g class="cls-2"><path class="cls-3" d="M18.78,17.76l-3.13-3.13h0A8.12,8.12,0,0,0,17,12.51a8.25,8.25,0,1,0-2.34,3.16h0l3.13,3.13a.74.74,0,0,0,.52.22.7.7,0,0,0,.52-.22.73.73,0,0,0,0-1ZM9.3,16.16A6.88,6.88,0,1,1,14.17,4.42,6.88,6.88,0,0,1,9.3,16.16Z" transform="translate(-1 -0.98)"/></g></g></g></svg>